<mxfile host="Electron" agent="Mozilla/5.0 (X11; Linux x86_64) AppleWebKit/537.36 (KHTML, like Gecko) draw.io/28.0.6 Chrome/138.0.7204.100 Electron/37.2.3 Safari/537.36" version="28.0.6">
  <diagram name="PÃ¡gina-1" id="c9R-OgtOB5ll91GrUpFu">
    <mxGraphModel dx="1422" dy="894" grid="1" gridSize="10" guides="1" tooltips="1" connect="1" arrows="1" fold="1" page="1" pageScale="1" pageWidth="827" pageHeight="1169" math="0" shadow="0">
      <root>
        <mxCell id="0" />
        <mxCell id="1" parent="0" />
        <mxCell id="oPXRSn1LA7k6ZmyRwilY-3" value="&amp;nbsp; nombre" style="swimlane;fontStyle=0;childLayout=stackLayout;horizontal=1;startSize=27;fillColor=none;horizontalStack=0;resizeParent=1;resizeParentMax=0;resizeLast=0;collapsible=1;marginBottom=0;whiteSpace=wrap;html=1;align=left;rounded=0;" parent="1" vertex="1">
          <mxGeometry x="82" y="242" width="80" height="79" as="geometry">
            <mxRectangle x="80" y="200" width="90" height="30" as="alternateBounds" />
          </mxGeometry>
        </mxCell>
        <mxCell id="oPXRSn1LA7k6ZmyRwilY-4" value="&amp;nbsp; ciudad" style="text;strokeColor=none;fillColor=none;align=left;verticalAlign=top;spacingLeft=4;spacingRight=4;overflow=hidden;rotatable=0;points=[[0,0.5],[1,0.5]];portConstraint=eastwest;whiteSpace=wrap;html=1;rounded=0;" parent="oPXRSn1LA7k6ZmyRwilY-3" vertex="1">
          <mxGeometry y="27" width="80" height="26" as="geometry" />
        </mxCell>
        <mxCell id="oPXRSn1LA7k6ZmyRwilY-7" value="&amp;nbsp; activos&lt;div&gt;&lt;br&gt;&lt;/div&gt;" style="text;strokeColor=none;fillColor=none;align=left;verticalAlign=top;spacingLeft=4;spacingRight=4;overflow=hidden;rotatable=0;points=[[0,0.5],[1,0.5]];portConstraint=eastwest;whiteSpace=wrap;html=1;rounded=0;" parent="oPXRSn1LA7k6ZmyRwilY-3" vertex="1">
          <mxGeometry y="53" width="80" height="26" as="geometry" />
        </mxCell>
        <mxCell id="oPXRSn1LA7k6ZmyRwilY-9" value="&lt;b&gt;SUCURSAL&lt;/b&gt;" style="text;html=1;align=center;verticalAlign=middle;resizable=0;points=[];autosize=1;strokeColor=none;fillColor=none;rounded=0;" parent="1" vertex="1">
          <mxGeometry x="77" y="212" width="90" height="30" as="geometry" />
        </mxCell>
        <mxCell id="oPXRSn1LA7k6ZmyRwilY-10" value="id_cliente" style="swimlane;fontStyle=0;childLayout=stackLayout;horizontal=1;startSize=37;fillColor=none;horizontalStack=0;resizeParent=1;resizeParentMax=0;resizeLast=0;collapsible=1;marginBottom=0;whiteSpace=wrap;html=1;align=left;rounded=0;" parent="1" vertex="1">
          <mxGeometry x="553" y="184" width="80" height="115" as="geometry" />
        </mxCell>
        <mxCell id="oPXRSn1LA7k6ZmyRwilY-12" value="&amp;nbsp; ciudad" style="text;strokeColor=none;fillColor=none;align=left;verticalAlign=top;spacingLeft=4;spacingRight=4;overflow=hidden;rotatable=0;points=[[0,0.5],[1,0.5]];portConstraint=eastwest;whiteSpace=wrap;html=1;rounded=0;" parent="oPXRSn1LA7k6ZmyRwilY-10" vertex="1">
          <mxGeometry y="37" width="80" height="26" as="geometry" />
        </mxCell>
        <mxCell id="oPXRSn1LA7k6ZmyRwilY-59" value="&amp;nbsp; nombre" style="text;strokeColor=none;fillColor=none;align=left;verticalAlign=top;spacingLeft=4;spacingRight=4;overflow=hidden;rotatable=0;points=[[0,0.5],[1,0.5]];portConstraint=eastwest;whiteSpace=wrap;html=1;rounded=0;" parent="oPXRSn1LA7k6ZmyRwilY-10" vertex="1">
          <mxGeometry y="63" width="80" height="26" as="geometry" />
        </mxCell>
        <mxCell id="oPXRSn1LA7k6ZmyRwilY-11" value="&amp;nbsp; direccion" style="text;strokeColor=none;fillColor=none;align=left;verticalAlign=top;spacingLeft=4;spacingRight=4;overflow=hidden;rotatable=0;points=[[0,0.5],[1,0.5]];portConstraint=eastwest;whiteSpace=wrap;html=1;rounded=0;" parent="oPXRSn1LA7k6ZmyRwilY-10" vertex="1">
          <mxGeometry y="89" width="80" height="26" as="geometry" />
        </mxCell>
        <mxCell id="oPXRSn1LA7k6ZmyRwilY-14" value="&lt;b&gt;CLIENTE&lt;/b&gt;" style="text;html=1;align=center;verticalAlign=middle;resizable=0;points=[];autosize=1;strokeColor=none;fillColor=none;rounded=0;" parent="1" vertex="1">
          <mxGeometry x="558" y="154" width="70" height="30" as="geometry" />
        </mxCell>
        <mxCell id="oPXRSn1LA7k6ZmyRwilY-65" style="edgeStyle=orthogonalEdgeStyle;orthogonalLoop=1;jettySize=auto;html=1;elbow=vertical;arcSize=0;exitX=1;exitY=0.5;exitDx=0;exitDy=0;startArrow=none;startFill=0;endArrow=classic;endFill=1;endSize=10;" parent="1" source="oPXRSn1LA7k6ZmyRwilY-15" edge="1">
          <mxGeometry relative="1" as="geometry">
            <mxPoint x="550" y="260" as="targetPoint" />
            <Array as="points">
              <mxPoint x="480" y="321" />
              <mxPoint x="480" y="260" />
            </Array>
          </mxGeometry>
        </mxCell>
        <mxCell id="oPXRSn1LA7k6ZmyRwilY-15" value="numero_prestamo&lt;div&gt;id_cliente&lt;/div&gt;" style="swimlane;fontStyle=0;childLayout=stackLayout;horizontal=1;startSize=50;fillColor=none;horizontalStack=0;resizeParent=1;resizeParentMax=0;resizeLast=0;collapsible=1;marginBottom=0;whiteSpace=wrap;html=1;align=left;rounded=0;" parent="1" vertex="1">
          <mxGeometry x="316" y="291" width="110" height="60" as="geometry" />
        </mxCell>
        <mxCell id="oPXRSn1LA7k6ZmyRwilY-19" value="&lt;b&gt;SOLICITAR&lt;/b&gt;" style="text;html=1;align=center;verticalAlign=middle;resizable=0;points=[];autosize=1;strokeColor=none;fillColor=none;rounded=0;" parent="1" vertex="1">
          <mxGeometry x="326" y="261" width="90" height="30" as="geometry" />
        </mxCell>
        <mxCell id="oPXRSn1LA7k6ZmyRwilY-64" style="edgeStyle=orthogonalEdgeStyle;orthogonalLoop=1;jettySize=auto;html=1;entryX=0;entryY=0.5;entryDx=0;entryDy=0;elbow=vertical;arcSize=0;startArrow=classic;startFill=1;startSize=10;endArrow=none;endFill=0;" parent="1" source="oPXRSn1LA7k6ZmyRwilY-20" target="oPXRSn1LA7k6ZmyRwilY-15" edge="1">
          <mxGeometry relative="1" as="geometry" />
        </mxCell>
        <mxCell id="oPXRSn1LA7k6ZmyRwilY-20" value="id_prestamo" style="swimlane;fontStyle=0;childLayout=stackLayout;horizontal=1;startSize=36;fillColor=none;horizontalStack=0;resizeParent=1;resizeParentMax=0;resizeLast=0;collapsible=1;marginBottom=0;whiteSpace=wrap;html=1;align=left;rounded=0;" parent="1" vertex="1">
          <mxGeometry x="80" y="394" width="120" height="114" as="geometry" />
        </mxCell>
        <mxCell id="oPXRSn1LA7k6ZmyRwilY-21" value="&amp;nbsp; valor" style="text;strokeColor=none;fillColor=none;align=left;verticalAlign=top;spacingLeft=4;spacingRight=4;overflow=hidden;rotatable=0;points=[[0,0.5],[1,0.5]];portConstraint=eastwest;whiteSpace=wrap;html=1;rounded=0;" parent="oPXRSn1LA7k6ZmyRwilY-20" vertex="1">
          <mxGeometry y="36" width="120" height="26" as="geometry" />
        </mxCell>
        <mxCell id="oPXRSn1LA7k6ZmyRwilY-22" value="&amp;nbsp; plazo" style="text;strokeColor=none;fillColor=none;align=left;verticalAlign=top;spacingLeft=4;spacingRight=4;overflow=hidden;rotatable=0;points=[[0,0.5],[1,0.5]];portConstraint=eastwest;whiteSpace=wrap;html=1;rounded=0;" parent="oPXRSn1LA7k6ZmyRwilY-20" vertex="1">
          <mxGeometry y="62" width="120" height="26" as="geometry" />
        </mxCell>
        <mxCell id="oPXRSn1LA7k6ZmyRwilY-23" value="&amp;nbsp; nombre_sucursal" style="text;strokeColor=none;fillColor=none;align=left;verticalAlign=top;spacingLeft=4;spacingRight=4;overflow=hidden;rotatable=0;points=[[0,0.5],[1,0.5]];portConstraint=eastwest;whiteSpace=wrap;html=1;rounded=0;" parent="oPXRSn1LA7k6ZmyRwilY-20" vertex="1">
          <mxGeometry y="88" width="120" height="26" as="geometry" />
        </mxCell>
        <mxCell id="oPXRSn1LA7k6ZmyRwilY-24" value="&lt;b&gt;PRESTAMO&lt;/b&gt;" style="text;html=1;align=center;verticalAlign=middle;resizable=0;points=[];autosize=1;strokeColor=none;fillColor=none;rounded=0;" parent="1" vertex="1">
          <mxGeometry x="90" y="364" width="90" height="30" as="geometry" />
        </mxCell>
        <mxCell id="oPXRSn1LA7k6ZmyRwilY-62" style="edgeStyle=orthogonalEdgeStyle;orthogonalLoop=1;jettySize=auto;html=1;exitX=1;exitY=0.25;exitDx=0;exitDy=0;entryX=1;entryY=0.5;entryDx=0;entryDy=0;startSize=7;endSize=9;elbow=vertical;arcSize=0;" parent="1" source="oPXRSn1LA7k6ZmyRwilY-25" target="oPXRSn1LA7k6ZmyRwilY-22" edge="1">
          <mxGeometry relative="1" as="geometry">
            <Array as="points">
              <mxPoint x="260" y="626" />
              <mxPoint x="260" y="469" />
            </Array>
          </mxGeometry>
        </mxCell>
        <mxCell id="oPXRSn1LA7k6ZmyRwilY-25" value="&lt;div&gt;id_prestamo&lt;/div&gt;&lt;div&gt;numero_pago&lt;/div&gt;" style="swimlane;fontStyle=0;childLayout=stackLayout;horizontal=1;startSize=47;fillColor=none;horizontalStack=0;resizeParent=1;resizeParentMax=0;resizeLast=0;collapsible=1;marginBottom=0;whiteSpace=wrap;html=1;align=left;rounded=0;" parent="1" vertex="1">
          <mxGeometry x="95" y="601" width="110" height="99" as="geometry" />
        </mxCell>
        <mxCell id="oPXRSn1LA7k6ZmyRwilY-26" value="&amp;nbsp; fecha" style="text;strokeColor=none;fillColor=none;align=left;verticalAlign=top;spacingLeft=4;spacingRight=4;overflow=hidden;rotatable=0;points=[[0,0.5],[1,0.5]];portConstraint=eastwest;whiteSpace=wrap;html=1;rounded=0;" parent="oPXRSn1LA7k6ZmyRwilY-25" vertex="1">
          <mxGeometry y="47" width="110" height="26" as="geometry" />
        </mxCell>
        <mxCell id="oPXRSn1LA7k6ZmyRwilY-27" value="&amp;nbsp; valor" style="text;strokeColor=none;fillColor=none;align=left;verticalAlign=top;spacingLeft=4;spacingRight=4;overflow=hidden;rotatable=0;points=[[0,0.5],[1,0.5]];portConstraint=eastwest;whiteSpace=wrap;html=1;rounded=0;" parent="oPXRSn1LA7k6ZmyRwilY-25" vertex="1">
          <mxGeometry y="73" width="110" height="26" as="geometry" />
        </mxCell>
        <mxCell id="oPXRSn1LA7k6ZmyRwilY-29" value="&lt;b&gt;PAGO&lt;/b&gt;" style="text;html=1;align=center;verticalAlign=middle;resizable=0;points=[];autosize=1;strokeColor=none;fillColor=none;rounded=0;" parent="1" vertex="1">
          <mxGeometry x="120" y="571" width="60" height="30" as="geometry" />
        </mxCell>
        <mxCell id="oPXRSn1LA7k6ZmyRwilY-30" value="numero_cuenta" style="swimlane;fontStyle=0;childLayout=stackLayout;horizontal=1;startSize=26;fillColor=none;horizontalStack=0;resizeParent=1;resizeParentMax=0;resizeLast=0;collapsible=1;marginBottom=0;whiteSpace=wrap;html=1;align=left;rounded=0;" parent="1" vertex="1">
          <mxGeometry x="329" y="453" width="100" height="78" as="geometry" />
        </mxCell>
        <mxCell id="oPXRSn1LA7k6ZmyRwilY-31" value="&amp;nbsp; saldo" style="text;strokeColor=none;fillColor=none;align=left;verticalAlign=top;spacingLeft=4;spacingRight=4;overflow=hidden;rotatable=0;points=[[0,0.5],[1,0.5]];portConstraint=eastwest;whiteSpace=wrap;html=1;rounded=0;" parent="oPXRSn1LA7k6ZmyRwilY-30" vertex="1">
          <mxGeometry y="26" width="100" height="26" as="geometry" />
        </mxCell>
        <mxCell id="oPXRSn1LA7k6ZmyRwilY-32" value="&amp;nbsp; fecha_a" style="text;strokeColor=none;fillColor=none;align=left;verticalAlign=top;spacingLeft=4;spacingRight=4;overflow=hidden;rotatable=0;points=[[0,0.5],[1,0.5]];portConstraint=eastwest;whiteSpace=wrap;html=1;rounded=0;" parent="oPXRSn1LA7k6ZmyRwilY-30" vertex="1">
          <mxGeometry y="52" width="100" height="26" as="geometry" />
        </mxCell>
        <mxCell id="oPXRSn1LA7k6ZmyRwilY-34" value="&lt;b&gt;CUENTA&lt;/b&gt;" style="text;html=1;align=center;verticalAlign=middle;resizable=0;points=[];autosize=1;strokeColor=none;fillColor=none;rounded=0;" parent="1" vertex="1">
          <mxGeometry x="344" y="423" width="70" height="30" as="geometry" />
        </mxCell>
        <mxCell id="oPXRSn1LA7k6ZmyRwilY-68" style="edgeStyle=orthogonalEdgeStyle;orthogonalLoop=1;jettySize=auto;html=1;exitX=0;exitY=0.5;exitDx=0;exitDy=0;entryX=1;entryY=0.5;entryDx=0;entryDy=0;elbow=vertical;arcSize=0;endArrow=classic;endFill=1;startArrow=none;startFill=0;startSize=10;endSize=10;" parent="1" source="oPXRSn1LA7k6ZmyRwilY-50" target="oPXRSn1LA7k6ZmyRwilY-31" edge="1">
          <mxGeometry relative="1" as="geometry" />
        </mxCell>
        <mxCell id="oPXRSn1LA7k6ZmyRwilY-50" value="numero_cuenta&lt;div&gt;id_cliente&lt;/div&gt;" style="swimlane;fontStyle=0;childLayout=stackLayout;horizontal=1;startSize=57;fillColor=none;horizontalStack=0;resizeParent=1;resizeParentMax=0;resizeLast=0;collapsible=1;marginBottom=0;whiteSpace=wrap;html=1;align=left;rounded=0;" parent="1" vertex="1">
          <mxGeometry x="533" y="371" width="120" height="87" as="geometry" />
        </mxCell>
        <mxCell id="oPXRSn1LA7k6ZmyRwilY-51" value="&amp;nbsp; fecha_u_accseso" style="text;strokeColor=none;fillColor=none;align=left;verticalAlign=top;spacingLeft=4;spacingRight=4;overflow=hidden;rotatable=0;points=[[0,0.5],[1,0.5]];portConstraint=eastwest;whiteSpace=wrap;html=1;rounded=0;" parent="oPXRSn1LA7k6ZmyRwilY-50" vertex="1">
          <mxGeometry y="57" width="120" height="30" as="geometry" />
        </mxCell>
        <mxCell id="oPXRSn1LA7k6ZmyRwilY-54" value="&lt;b&gt;TENER&lt;/b&gt;" style="text;html=1;align=center;verticalAlign=middle;resizable=0;points=[];autosize=1;strokeColor=none;fillColor=none;rounded=0;" parent="1" vertex="1">
          <mxGeometry x="563" y="341" width="60" height="30" as="geometry" />
        </mxCell>
        <mxCell id="oPXRSn1LA7k6ZmyRwilY-55" value="id_cliente&lt;div&gt;telefono&lt;/div&gt;" style="swimlane;fontStyle=0;childLayout=stackLayout;horizontal=1;startSize=50;fillColor=none;horizontalStack=0;resizeParent=1;resizeParentMax=0;resizeLast=0;collapsible=1;marginBottom=0;whiteSpace=wrap;html=1;align=left;rounded=0;" parent="1" vertex="1">
          <mxGeometry x="700" y="116" width="70" height="70" as="geometry" />
        </mxCell>
        <mxCell id="oPXRSn1LA7k6ZmyRwilY-58" value="&lt;b&gt;TELEFONOS&lt;/b&gt;" style="text;html=1;align=center;verticalAlign=middle;resizable=0;points=[];autosize=1;strokeColor=none;fillColor=none;rounded=0;" parent="1" vertex="1">
          <mxGeometry x="685" y="86" width="100" height="30" as="geometry" />
        </mxCell>
        <mxCell id="oPXRSn1LA7k6ZmyRwilY-63" style="edgeStyle=orthogonalEdgeStyle;orthogonalLoop=1;jettySize=auto;html=1;exitX=0;exitY=0.5;exitDx=0;exitDy=0;entryX=0;entryY=0.5;entryDx=0;entryDy=0;elbow=vertical;arcSize=0;endSize=10;" parent="1" source="oPXRSn1LA7k6ZmyRwilY-23" target="oPXRSn1LA7k6ZmyRwilY-4" edge="1">
          <mxGeometry relative="1" as="geometry">
            <Array as="points">
              <mxPoint x="80" y="486" />
              <mxPoint x="40" y="486" />
              <mxPoint x="40" y="282" />
            </Array>
          </mxGeometry>
        </mxCell>
        <mxCell id="oPXRSn1LA7k6ZmyRwilY-66" style="edgeStyle=orthogonalEdgeStyle;orthogonalLoop=1;jettySize=auto;html=1;entryX=0;entryY=0.5;entryDx=0;entryDy=0;elbow=vertical;arcSize=0;exitX=1;exitY=0.5;exitDx=0;exitDy=0;endArrow=none;endFill=0;startArrow=classic;startFill=1;startSize=10;" parent="1" source="oPXRSn1LA7k6ZmyRwilY-59" target="oPXRSn1LA7k6ZmyRwilY-55" edge="1">
          <mxGeometry relative="1" as="geometry">
            <mxPoint x="636" y="260" as="sourcePoint" />
            <Array as="points">
              <mxPoint x="670" y="260" />
              <mxPoint x="670" y="151" />
            </Array>
          </mxGeometry>
        </mxCell>
        <mxCell id="oPXRSn1LA7k6ZmyRwilY-67" style="edgeStyle=orthogonalEdgeStyle;orthogonalLoop=1;jettySize=auto;html=1;entryX=1;entryY=0.25;entryDx=0;entryDy=0;elbow=vertical;arcSize=0;exitX=1;exitY=0.5;exitDx=0;exitDy=0;endSize=10;startArrow=classic;startFill=1;startSize=10;endArrow=none;endFill=0;" parent="1" source="oPXRSn1LA7k6ZmyRwilY-11" target="oPXRSn1LA7k6ZmyRwilY-50" edge="1">
          <mxGeometry relative="1" as="geometry">
            <Array as="points">
              <mxPoint x="680" y="286" />
              <mxPoint x="680" y="393" />
            </Array>
          </mxGeometry>
        </mxCell>
      </root>
    </mxGraphModel>
  </diagram>
</mxfile>
